<svg xmlns="http://www.w3.org/2000/svg" viewBox="0 0 100 100">
  <style>
    .black {
      stroke: #000000;
      fill: #333333;
      stroke-width: 3;
    }
    .red {
      stroke: #A61123;
      fill: #EA3449;
      stroke-width: 3;
    }
  </style>
  <!-- clubs -->
  <path class="black"
        d="m17,21 
           a10,10 0,1,1 16,0
           a9,9 0,1,1 -5,15
           a10,10 0,0,0 2,8
           l-10,0
           a10,10 0,0,0 2,-8
           a9,9 0,1,1 -5,-15
           z" />
  
  <!-- diamonds -->
  <path class="red"
        d="m75,5 
           q5,12 15,20
           q-9,7 -15,20
           q-5,-12 -15,-20
           q9,-7 15,-20
           z" />
  
  <!-- spades -->
  <path class="black"
        d="m15,71 
           q6,-4 10,-16
           q4,12 10,16
           a7,8 0,1,1 -7,15
           a10,10 0,0,0 3,8
           l-12,0
           a10,10 0,0,0 3,-8
           a7,8 0,1,1 -7,-15
           z" />
  
  <!-- hearts -->
  <path class="red"
        d="m75,60 
           a10,10 0,1,1 15,15
           q-9,7 -15,20
           q-5,-12 -15,-20
           a10,10 0,1,1 15,-15
           z" />
</svg>

